<svg xmlns="http://www.w3.org/2000/svg" width="1010.667" height="542.667" viewBox="0 0 267.406 143.581"><defs><marker orient="auto" refY="0" refX="0" id="a" overflow="visible"><path d="M-2.308 0l3.46-2v4l-3.46-2z" fill-rule="evenodd" stroke="#000" stroke-width=".4pt"/></marker><marker orient="auto" refY="0" refX="0" id="b" overflow="visible"><path d="M-2.308 0l3.46-2v4z" fill-rule="evenodd" stroke="#000" stroke-width=".533"/></marker><marker orient="auto" refY="0" refX="0" id="c" overflow="visible"><path d="M-2.308 0l3.46-2v4z" fill-rule="evenodd" stroke="#000" stroke-width=".533"/></marker><marker orient="auto" refY="0" refX="0" id="d" overflow="visible"><path d="M-2.308 0l3.46-2v4z" fill-rule="evenodd" stroke="#000" stroke-width=".533"/></marker><marker orient="auto" refY="0" refX="0" id="e" overflow="visible"><path d="M-2.308 0l3.46-2v4z" fill-rule="evenodd" stroke="#000" stroke-width=".533"/></marker><marker orient="auto" refY="0" refX="0" id="f" overflow="visible"><path d="M-2.308 0l3.46-2v4z" fill-rule="evenodd" stroke="#000" stroke-width=".533"/></marker><marker orient="auto" refY="0" refX="0" id="g" overflow="visible"><path d="M-2.308 0l3.46-2v4z" fill-rule="evenodd" stroke="#000" stroke-width=".533"/></marker><marker orient="auto" refY="0" refX="0" id="h" overflow="visible"><path d="M-2.308 0l3.46-2v4z" fill-rule="evenodd" stroke="#000" stroke-width=".533"/></marker><marker orient="auto" refY="0" refX="0" id="i" overflow="visible"><path d="M-2.308 0l3.46-2v4z" fill-rule="evenodd" stroke="#000" stroke-width=".533"/></marker></defs><g transform="translate(-3.88 -107.281)"><text style="line-height:6.61458302px;-inkscape-font-specification:'sans-serif Bold'" x="268.44" y="123.673" font-weight="700" font-size="10.583" font-family="sans-serif" letter-spacing="0" word-spacing="0" stroke-width=".265"><tspan x="268" y="123.673" style="-inkscape-font-specification:'sans-serif Bold';text-align:end" dy="-4.76" letter-spacing="-.439" text-anchor="end">Home Assistant</tspan><tspan x="268" y="130.287" style="-inkscape-font-specification:'sans-serif Bold';text-align:end" letter-spacing="-.439" text-anchor="end">Core Architecture</tspan></text><path fill="#cfe2f3" stroke="#000" stroke-width=".865" d="M204.775 165.25h42v23h-42z"/><text style="line-height:3.78111124px" x="225.697" y="173.029" transform="scale(.96508 1.03619)" font-weight="400" font-size="6.05" font-family="sans-serif" letter-spacing="0" word-spacing="0" stroke-width=".151"><tspan x="225.697" y="173.029" style="line-height:.34869605px">Timer</tspan></text><path fill="#cfe2f3" stroke="#000" stroke-width=".865" d="M114.794 164.522h42v23h-42z"/><text style="line-height:3.78111124px" x="125.606" y="172.144" transform="scale(.96508 1.03619)" font-weight="400" font-size="6.05" font-family="sans-serif" letter-spacing="0" word-spacing="0" stroke-width=".151"><tspan x="125.606" y="172.144" style="line-height:.34869605px">Event Bus</tspan></text><path fill="#cfe2f3" stroke="#000" stroke-width=".865" d="M114.377 109.736h42v23h-42z"/><text style="line-height:3.78111124px" x="140.76" y="118.679" transform="scale(.96508 1.03619)" font-weight="400" font-size="6.05" font-family="sans-serif" letter-spacing="0" word-spacing="0" stroke-width=".151"><tspan x="140.76" y="118.679" style="line-height:.34869605px;text-align:center" dy="-2.22" text-anchor="middle">State</tspan><tspan x="140.76" y="122.46" style="line-height:.34869605px;text-align:center" text-anchor="middle">Machine</tspan></text><text style="line-height:3.62678003px" x="76.203" y="156.705" transform="scale(.97487 1.02578)" font-weight="400" font-size="5.803" font-family="sans-serif" letter-spacing="0" word-spacing="0" stroke-width=".145"><tspan x="76.203" y="156.705" dy="-3.894">listen for events/</tspan><tspan x="76.203" y="160.332">fire event</tspan></text><path fill="#cfe2f3" stroke="#000" stroke-width=".865" d="M114.912 221.455h42v23h-42z"/><text style="line-height:3.78111124px" x="141.314" y="226.496" transform="scale(.96508 1.03619)" font-weight="400" font-size="6.05" font-family="sans-serif" letter-spacing="0" word-spacing="0" stroke-width=".151"><tspan x="141.314" y="226.496" style="line-height:.34869605px;text-align:center" dy="-2.22" text-anchor="middle">Service</tspan><tspan x="141.314" y="230.278" style="line-height:.34869605px;text-align:center" text-anchor="middle">Registry</tspan></text><path fill="none" d="M22.322 143.954h35.012v34.21H22.322z"/><path fill="#9fc5e8" stroke="#000" stroke-width="1.065" stroke-linejoin="round" stroke-dashoffset=".501" d="M7.89 110.622h60.937V245.65H7.89z"/><rect width="55.229" height="15.272" x="10.811" y="124.825" ry="2.942" fill="#cfe2f3" stroke="#000" stroke-width=".795" stroke-linecap="round" stroke-linejoin="round" stroke-dashoffset=".501"/><text style="line-height:4.03892612px" x="32.545" y="127.358" transform="scale(.94729 1.05565)" font-weight="400" font-size="6.462" font-family="sans-serif" letter-spacing="0" word-spacing="0" stroke-width=".162"><tspan x="32.545" y="127.358" style="line-height:.37247187px">Light</tspan></text><rect width="55.229" height="15.272" x="10.61" y="158.234" ry="2.942" fill="#cfe2f3" stroke="#000" stroke-width=".795" stroke-linecap="round" stroke-linejoin="round" stroke-dashoffset=".501"/><rect width="55.229" height="15.272" x="10.744" y="226.12" ry="2.942" fill="#cfe2f3" stroke="#000" stroke-width=".795" stroke-linecap="round" stroke-linejoin="round" stroke-dashoffset=".501"/><rect width="55.229" height="15.272" x="10.744" y="192.177" ry="2.942" fill="#cfe2f3" stroke="#000" stroke-width=".795" stroke-linecap="round" stroke-linejoin="round" stroke-dashoffset=".501"/><text style="line-height:4.03892612px" x="20.246" y="223.222" transform="scale(.94729 1.05565)" font-weight="400" font-size="6.462" font-family="sans-serif" letter-spacing="0" word-spacing="0" stroke-width=".162"><tspan x="20.246" y="223.222" style="line-height:.37247187px">Many more...</tspan></text><text style="line-height:4.03892612px" x="17.283" y="191.701" transform="scale(.94729 1.05565)" font-weight="400" font-size="6.462" font-family="sans-serif" letter-spacing="0" word-spacing="0" stroke-width=".162"><tspan x="17.283" y="191.701" style="line-height:.37247187px">Device Tracker</tspan></text><text style="line-height:4.03892612px" x="30.403" y="159.927" transform="scale(.94729 1.05565)" font-weight="400" font-size="6.462" font-family="sans-serif" letter-spacing="0" word-spacing="0" stroke-width=".162"><tspan x="30.403" y="159.927" style="line-height:.37247187px">Switch</tspan></text><text style="line-height:3.66677809px" x="11.099" y="120.105" transform="scale(1.00663 .99342)" font-weight="400" font-size="5.867" font-family="sans-serif" letter-spacing="0" word-spacing="0" stroke-width=".147"><tspan x="11.099" y="120.105" style="line-height:.33815217px">Components</tspan></text><text style="line-height:3.62678027px" x="76.623" y="116.727" transform="scale(.97487 1.02578)" font-weight="400" font-size="5.803" font-family="sans-serif" letter-spacing="0" word-spacing="0" stroke-width=".145"><tspan x="76.623" y="116.727">set state</tspan></text><path d="M134.367 161.728l-.015-1.205-.018-27.59" fill="none" stroke="#000" stroke-width=".878" stroke-miterlimit="8.3" marker-start="url(#a)"/><path d="M143.649 190.713l.016 1.272.02 29.09" fill="none" stroke="#000" stroke-width=".966" stroke-miterlimit="8.3" marker-start="url(#b)"/><path d="M159.711 175.37l1.898-.015 43.436-.018" fill="none" stroke="#000" stroke-width="1.104" stroke-miterlimit="8.3" marker-start="url(#c)"/><path d="M111.542 166.927l-1.775.015-40.595.018" fill="none" stroke="#000" stroke-width="1.089" stroke-miterlimit="8.3" marker-start="url(#d)"/><path d="M72.343 186.061l1.764-.015 40.367-.018" fill="none" stroke="#000" stroke-width="1.088" stroke-miterlimit="8.3" marker-start="url(#e)"/><path d="M111.392 223.453l-1.767.015-40.412.02" fill="none" stroke="#000" stroke-width="1.089" stroke-miterlimit="8.3" marker-start="url(#f)"/><path d="M72.431 242.885l1.775-.015 40.605-.019" fill="none" stroke="#000" stroke-width="1.089" stroke-miterlimit="8.3" marker-start="url(#g)"/><text style="line-height:3.62678027px" x="76.486" y="175.482" transform="scale(.97487 1.02578)" font-weight="400" font-size="5.803" font-family="sans-serif" letter-spacing="0" word-spacing="0" stroke-width=".145"><tspan x="76.486" y="175.482" dy="-3.89">call event </tspan><tspan x="76.486" y="179.108">listeners</tspan></text><text style="line-height:3.62678027px" x="76.617" y="211.42" transform="scale(.97487 1.02578)" font-weight="400" font-size="5.803" font-family="sans-serif" letter-spacing="0" word-spacing="0" stroke-width=".145"><tspan x="76.617" y="211.42" dy="-3.89">publish</tspan><tspan x="76.617" y="215.047">service</tspan></text><text style="line-height:3.62678027px" x="76.617" y="229.138" transform="scale(.97487 1.02578)" font-weight="400" font-size="5.803" font-family="sans-serif" letter-spacing="0" word-spacing="0" stroke-width=".145"><tspan x="76.617" y="229.138" dy="-3.89">call</tspan><tspan x="76.617" y="232.765">service</tspan></text><path d="M121.36 218.556l-.014-1.282-.018-29.335" fill="none" stroke="#000" stroke-width=".905" stroke-miterlimit="8.3" marker-start="url(#h)"/><path fill="#fffff3" paint-order="markers fill stroke" d="M120.577 197.742h1.437v12.762h-1.437z"/><text style="line-height:3.62678027px" x="124.506" y="200.868" transform="scale(.97487 1.02578)" font-weight="400" font-size="5.803" font-family="sans-serif" letter-spacing="0" word-spacing="0" stroke-width=".145"><tspan x="124.506" y="200.868" style="text-align:center" dy="-3.89" text-anchor="middle">call_service</tspan><tspan x="124.506" y="204.495" style="text-align:center" text-anchor="middle">events</tspan></text><path d="M111.709 121.356l-1.78.016-40.723.018" fill="none" stroke="#000" stroke-width="1.09" stroke-miterlimit="8.3" marker-start="url(#i)"/><text style="line-height:3.62678027px;text-align:start" x="149.495" y="200.994" transform="scale(.97487 1.02578)" font-weight="400" font-size="5.803" font-family="sans-serif" letter-spacing="0" word-spacing="0" stroke-width=".145"><tspan x="149.495" y="200.994" style="text-align:start" dy="-3.89">service_called</tspan><tspan x="149.495" y="204.621" style="text-align:start">events</tspan></text><text style="line-height:3.62678027px;text-align:start" x="166.826" y="180.945" transform="scale(.97487 1.02578)" font-weight="400" font-size="5.803" font-family="sans-serif" letter-spacing="0" word-spacing="0" stroke-width=".145"><tspan x="166.826" y="180.945" style="text-align:start" dy="-3.89">time_changed</tspan><tspan x="166.826" y="184.572" style="text-align:start">events</tspan></text><text style="line-height:3.62678027px;text-align:start" x="140.479" y="145.893" transform="scale(.97487 1.02578)" font-weight="400" font-size="5.803" font-family="sans-serif" letter-spacing="0" word-spacing="0" stroke-width=".145"><tspan x="140.479" y="145.893" style="text-align:start" dy="-3.89">state_changed</tspan><tspan x="140.479" y="149.519" style="text-align:start">events</tspan></text></g></svg>